# xmcd
#
# Track frame offsets: 
#        150
#        3287
#        22394
#        54512
#        77237
#        93457
#        109130
#        126647
#        158231
#        178016
#        199617
#        214700
#        234446
#        271305
#        283610
#        310228
#
# Disc length: 4568 seconds
#
# Revision: 2
# Processed by: cddbd v1.5.2PL0 Copyright (c) Steve Scherf et al.
# Submitted via: ExactAudioCopy v1.0b4
#
DISCID=e311d610
DTITLE=György Ligeti - Clear Or Cloudy [CD4]
DYEAR=2006
DGENRE=Contemporary
TTITLE0=The Big Turtle Fanfare from the South China Sea
TTITLE1=I. Monument
TTITLE2=II. Selbsportrait mit Reich und Riley (und Chopin ist auch dab
TTITLE2=ei)
TTITLE3=III. Bewegung
TTITLE4=I. Etude 2: Cordes à vide. Andantino con moto, molto tenero
TTITLE5=II. Etude 4: Fanfares. Vivacissimo molto ritmico, con allegria
TTITLE5=e slancio
TTITLE6=I. Vivace molto ritmico e preciso - attacca subito
TTITLE7=II. Lento e deserto
TTITLE8=III. Vivace cantabile
TTITLE9=IV. Allegro risoluto, molto ritmico - attacca subito
TTITLE10=V. Presto luminoso: fluido, costante, sempre molto ritmico
TTITLE11=I. Praeludium: Vivacissimo luminoso - attacca
TTITLE12=II. Aria, Hoquetus, Choral: Andante con moto - attacca
TTITLE13=III. Intermezzo: Presto fluido
TTITLE14=IV. Passacaglia: Lento intenso
TTITLE15=V. Appassionato: Agitato molto
EXTD=
EXTT0=
EXTT1=
EXTT2=
EXTT3=
EXTT4=
EXTT5=
EXTT6=
EXTT7=
EXTT8=
EXTT9=
EXTT10=
EXTT11=
EXTT12=
EXTT13=
EXTT14=
EXTT15=
PLAYORDER=
